<?xml version="1.0" encoding="utf-8"?>
<!-- Generator: Adobe Illustrator 19.2.1, SVG Export Plug-In . SVG Version: 6.00 Build 0)  -->
<svg version="1.1" xmlns="http://www.w3.org/2000/svg" xmlns:xlink="http://www.w3.org/1999/xlink" x="0px" y="0px"
	 viewBox="0 0 46 47.7" style="enable-background:new 0 0 46 47.7;" xml:space="preserve">
<style type="text/css">
	.st0{fill:#B9C1CC;}
</style>
<g id="Слой_1">
	<title>bell_10</title>
	<g id="Forma_1">
		<g>
			<g id="Forma_1-2">
				<path class="st0" d="M43.9,36c-4.1-3.7-7.9-9-7.9-22c0-7.6-5.9-13.7-13.1-13.7S9.9,6.3,9.9,13.9c0,13.1-3.8,18.3-7.9,22
					c-1.1,1.1-1.8,2.5-1.8,4.1c0,0.8,0.6,1.5,1.5,1.6h14.1c0.6,3.5,3.6,6,7.1,6.1c3.5-0.1,6.5-2.6,7.1-6.1h14.1
					c0.8,0,1.5-0.7,1.5-1.6C45.7,38.5,45.1,37,43.9,36z M23,3.3"/>
			</g>
		</g>
	</g>
</g>
<g id="Слой_2">
	<path class="st0" d="M22.5,3.3"/>
</g>
</svg>
