<?xml version="1.0" encoding="utf-8"?>
<!-- Generator: Adobe Illustrator 19.2.1, SVG Export Plug-In . SVG Version: 6.00 Build 0)  -->
<svg version="1.1" id="Слой_5" xmlns="http://www.w3.org/2000/svg" xmlns:xlink="http://www.w3.org/1999/xlink" x="0px" y="0px"
	 viewBox="0 0 40 40" style="enable-background:new 0 0 40 40;" xml:space="preserve">
<style type="text/css">
	.st0{fill:#545454;}
	.st1{fill:#535353;}
</style>
<g id="Слой_4">
	<g>
		<g>
			<path class="st0" d="M20,39.5C9.2,39.5,0.5,30.8,0.5,20S9.2,0.5,20,0.5S39.5,9.2,39.5,20S30.8,39.5,20,39.5z M20,2.5
				C10.3,2.5,2.5,10.3,2.5,20S10.3,37.5,20,37.5S37.5,29.7,37.5,20S29.7,2.5,20,2.5z"/>
		</g>
		<g>
			<g>
				<rect x="14.5" y="11" class="st0" width="2" height="2.9"/>
			</g>
			<g>
				<rect x="23" y="11" class="st0" width="2" height="2.9"/>
			</g>
			<g>
				<rect x="11.3" y="15.9" class="st0" width="18.1" height="1"/>
			</g>
			<g>
				<g>
					<path class="st1" d="M27,28H13c-1.4,0-2.5-1.1-2.5-2.5V14.5c0-1.4,1.1-2.5,2.5-2.5H27c1.4,0,2.5,1.1,2.5,2.5v11.1
						C29.5,26.9,28.3,28,27,28z M13,13c-0.8,0-1.5,0.7-1.5,1.5v11.1c0,0.8,0.7,1.5,1.5,1.5H27c0.8,0,1.5-0.7,1.5-1.5V14.5
						c0-0.8-0.7-1.5-1.5-1.5H13z"/>
				</g>
				<g>
					<rect x="13.5" y="18.9" class="st1" width="2.1" height="2.1"/>
				</g>
				<g>
					<rect x="17.5" y="18.9" class="st1" width="2.1" height="2.1"/>
				</g>
				<g>
					<rect x="20.4" y="18.9" class="st1" width="2.1" height="2.1"/>
				</g>
				<g>
					<rect x="24.4" y="18.9" class="st1" width="2.1" height="2.1"/>
				</g>
				<g>
					<rect x="13.6" y="21.9" class="st1" width="2.1" height="2.1"/>
				</g>
				<g>
					<rect x="17.5" y="21.9" class="st1" width="2.1" height="2.1"/>
				</g>
				<g>
					<rect x="20.4" y="21.9" class="st1" width="2.1" height="2.1"/>
				</g>
				<g>
					<rect x="24.4" y="21.9" class="st1" width="2.1" height="2.1"/>
				</g>
			</g>
		</g>
	</g>
</g>
</svg>
