<?xml version="1.0" encoding="utf-8"?>
<!-- Generator: Adobe Illustrator 19.2.1, SVG Export Plug-In . SVG Version: 6.00 Build 0)  -->
<svg version="1.1" id="Слой_1" xmlns="http://www.w3.org/2000/svg" xmlns:xlink="http://www.w3.org/1999/xlink" x="0px" y="0px"
	 viewBox="0 0 40 40" style="enable-background:new 0 0 40 40;" xml:space="preserve">
<style type="text/css">
	.st0{enable-background:new    ;}
	.st1{fill:#193256;}
</style>
<title>icon_qustion</title>
<g id="Эллипс_9">
	<g>
		<g class="st0">
			<path class="st1" d="M18.5,22.6v-3.5c1.1-0.2,2.1-0.7,3-1.3c0.9-0.7,1.3-1.5,1.3-2.4c0-1.8-1.5-3-3.6-3c-1.4,0-2.8,0.5-4.1,1.4
				v-1.6c1.2-0.9,2.7-1.3,4.4-1.3c1.4,0,2.7,0.4,3.6,1.2c1,0.8,1.5,1.9,1.5,3.3c0,1.2-0.4,2.1-1.3,2.9c-0.8,0.8-1.9,1.4-3.1,1.8v2.6
				H18.5z M18.5,25.8c0.5-0.5,1.3-0.5,1.8,0s0.5,1.3,0,1.8c-0.5,0.5-1.3,0.5-1.8,0C18,27.1,18,26.3,18.5,25.8z"/>
		</g>
		<g id="Эллипс_9-2">
			<g>
				<path class="st1" d="M20,2c9.9,0,18,8.1,18,18s-8.1,18-18,18S2,29.9,2,20C2,10.1,10.1,2,20,2 M20,0C9,0,0,9,0,20s9,20,20,20
					s20-9,20-20S31,0,20,0L20,0z"/>
			</g>
		</g>
	</g>
</g>
</svg>
