<?xml version="1.0" encoding="utf-8"?>
<!-- Generator: Adobe Illustrator 19.2.1, SVG Export Plug-In . SVG Version: 6.00 Build 0)  -->
<svg version="1.1" xmlns="http://www.w3.org/2000/svg" xmlns:xlink="http://www.w3.org/1999/xlink" x="0px" y="0px"
	 viewBox="0 0 19.3 17.6" style="enable-background:new 0 0 19.3 17.6;" xml:space="preserve">
<style type="text/css">
	.st0{display:none;}
	.st1{fill:#000002;}
</style>
<g id="like_blog_копия_4_Изображение" class="st0">
	<title>likes</title>
	
		<image style="display:inline;overflow:visible;enable-background:new    ;" width="17" height="13" id="like_blog_копия_4_Изображение-2" xlink:href="48B57780.png"  transform="matrix(0.1553 0 0 0.1662 -10.9167 -11.5833)">
	</image>
</g>
<g id="Слой_2">
	<g>
		<g>
			<path class="st1" d="M9.9,17.1l-0.3-0.2C5.3,14,1.2,9.6,0.7,7.5C0.4,6,0.4,3.8,1.7,2.2c0.9-1.1,2.2-1.7,3.8-1.7c0,0,0,0,0,0
				c1,0,3.2,0.3,4.2,2.7c1-2.4,3.2-2.7,4.2-2.7c0,0,0,0,0,0c1.6,0,2.9,0.6,3.8,1.7c1.3,1.6,1.3,3.7,1,5.3c-0.4,2-4.1,6.3-8.6,9.4
				L9.9,17.1z M5.5,1.5c-1.3,0-2.3,0.4-3,1.3C1.4,4.1,1.4,6,1.7,7.2c0.4,1.6,4,5.7,8.2,8.6c4.4-3.1,7.6-7.1,7.9-8.6
				C18.1,6,18.1,4.1,17,2.8c-0.7-0.9-1.7-1.3-3.1-1.3c-1.3,0-3.4,0.5-3.7,4h-1C8.9,2.1,6.8,1.5,5.5,1.5C5.5,1.5,5.5,1.5,5.5,1.5z"/>
		</g>
	</g>
</g>
</svg>
